<mxfile host="app.diagrams.net" modified="2024-01-24T00:42:06.248Z" agent="Mozilla/5.0 (iPhone; CPU iPhone OS 17_1_1 like Mac OS X) AppleWebKit/605.1.15 (KHTML, like Gecko) Version/17.1.1 Mobile/15E148 Safari/604.1" etag="8m9we19UIruD_djrPgIa" version="22.1.17" type="github">
  <diagram name="ページ1" id="Xy9gjA_HjAxm85NfhtZA">
    <mxGraphModel dx="3573" dy="5693" grid="0" gridSize="10" guides="1" tooltips="1" connect="1" arrows="1" fold="1" page="0" pageScale="1" pageWidth="827" pageHeight="1169" math="0" shadow="0">
      <root>
        <mxCell id="0" />
        <mxCell id="1" parent="0" />
        <mxCell id="0eMQlolWz2z9fM6txT98-1" value="条件式" style="swimlane;whiteSpace=wrap;html=1;fontSize=16;" parent="1" vertex="1">
          <mxGeometry x="512" y="-868" width="1231" height="2161" as="geometry" />
        </mxCell>
        <mxCell id="ESlLFewBLlkk10iAwdE4-8" value="変数ドロップエリア" style="swimlane;whiteSpace=wrap;html=1;fontSize=16;" parent="0eMQlolWz2z9fM6txT98-1" vertex="1">
          <mxGeometry x="496" y="107" width="693" height="587" as="geometry" />
        </mxCell>
        <mxCell id="OX70NU7VaJtVl9tTdNUW-19" style="edgeStyle=none;curved=1;rounded=0;orthogonalLoop=1;jettySize=auto;html=1;fontSize=12;startSize=8;endSize=8;" parent="ESlLFewBLlkk10iAwdE4-8" source="OX70NU7VaJtVl9tTdNUW-15" edge="1">
          <mxGeometry relative="1" as="geometry">
            <mxPoint x="386" y="305" as="targetPoint" />
          </mxGeometry>
        </mxCell>
        <mxCell id="ESlLFewBLlkk10iAwdE4-14" value="Drop" style="swimlane;whiteSpace=wrap;html=1;fontSize=16;" parent="ESlLFewBLlkk10iAwdE4-8" vertex="1">
          <mxGeometry x="114" y="66" width="403" height="469" as="geometry" />
        </mxCell>
        <mxCell id="ESlLFewBLlkk10iAwdE4-15" value="Type type = 変数" style="text;html=1;align=center;verticalAlign=middle;resizable=0;points=[];autosize=1;strokeColor=none;fillColor=none;fontSize=16;" parent="ESlLFewBLlkk10iAwdE4-14" vertex="1">
          <mxGeometry x="29" y="52" width="138" height="31" as="geometry" />
        </mxCell>
        <mxCell id="ESlLFewBLlkk10iAwdE4-16" value="BeginDrop" style="swimlane;whiteSpace=wrap;html=1;fontSize=16;startSize=30;" parent="ESlLFewBLlkk10iAwdE4-14" vertex="1">
          <mxGeometry x="233" y="97" width="125" height="142" as="geometry" />
        </mxCell>
        <mxCell id="ESlLFewBLlkk10iAwdE4-17" value="EndDrop" style="swimlane;whiteSpace=wrap;html=1;fontSize=16;" parent="ESlLFewBLlkk10iAwdE4-14" vertex="1">
          <mxGeometry x="28" y="216" width="141" height="150" as="geometry" />
        </mxCell>
        <mxCell id="ESlLFewBLlkk10iAwdE4-23" style="edgeStyle=none;curved=1;rounded=0;orthogonalLoop=1;jettySize=auto;html=1;fontSize=12;startSize=8;endSize=8;entryX=0.25;entryY=1;entryDx=0;entryDy=0;" parent="0eMQlolWz2z9fM6txT98-1" source="ESlLFewBLlkk10iAwdE4-19" target="ESlLFewBLlkk10iAwdE4-8" edge="1">
          <mxGeometry relative="1" as="geometry">
            <mxPoint x="688" y="753" as="targetPoint" />
          </mxGeometry>
        </mxCell>
        <mxCell id="ESlLFewBLlkk10iAwdE4-24" value="親子" style="edgeLabel;html=1;align=center;verticalAlign=middle;resizable=0;points=[];fontSize=16;" parent="ESlLFewBLlkk10iAwdE4-23" vertex="1" connectable="0">
          <mxGeometry x="0.0407" y="-11" relative="1" as="geometry">
            <mxPoint y="1" as="offset" />
          </mxGeometry>
        </mxCell>
        <mxCell id="ESlLFewBLlkk10iAwdE4-19" value="条件式" style="swimlane;whiteSpace=wrap;html=1;fontSize=16;" parent="0eMQlolWz2z9fM6txT98-1" vertex="1">
          <mxGeometry x="75" y="969" width="1077" height="1162" as="geometry" />
        </mxCell>
        <mxCell id="OX70NU7VaJtVl9tTdNUW-12" value="条件式コンポーネント" style="swimlane;whiteSpace=wrap;html=1;fontSize=16;" parent="ESlLFewBLlkk10iAwdE4-19" vertex="1">
          <mxGeometry x="357" y="96" width="666" height="533" as="geometry" />
        </mxCell>
        <mxCell id="OX70NU7VaJtVl9tTdNUW-13" value="Func 変数" style="text;html=1;align=center;verticalAlign=middle;resizable=0;points=[];autosize=1;strokeColor=none;fillColor=none;fontSize=16;" parent="OX70NU7VaJtVl9tTdNUW-12" vertex="1">
          <mxGeometry x="44" y="44" width="90" height="31" as="geometry" />
        </mxCell>
        <mxCell id="OX70NU7VaJtVl9tTdNUW-15" value="変数設定メソッド" style="swimlane;whiteSpace=wrap;html=1;fontSize=16;" parent="OX70NU7VaJtVl9tTdNUW-12" vertex="1">
          <mxGeometry x="315" y="86" width="186.5" height="127" as="geometry" />
        </mxCell>
        <mxCell id="OX70NU7VaJtVl9tTdNUW-16" value="Func変数に代入" style="text;html=1;align=center;verticalAlign=middle;resizable=0;points=[];autosize=1;strokeColor=none;fillColor=none;fontSize=16;rotation=0;" parent="OX70NU7VaJtVl9tTdNUW-15" vertex="1">
          <mxGeometry x="20" y="79" width="134" height="31" as="geometry" />
        </mxCell>
        <mxCell id="OX70NU7VaJtVl9tTdNUW-20" value="子要素取得" style="text;html=1;align=center;verticalAlign=middle;resizable=0;points=[];autosize=1;strokeColor=none;fillColor=none;fontSize=16;" parent="OX70NU7VaJtVl9tTdNUW-15" vertex="1">
          <mxGeometry x="25.75" y="39" width="98" height="31" as="geometry" />
        </mxCell>
        <mxCell id="V94yT28tCt5CNNnFMt7O-5" value="Start" style="swimlane;whiteSpace=wrap;html=1;fontSize=16;" parent="OX70NU7VaJtVl9tTdNUW-12" vertex="1">
          <mxGeometry x="24" y="114" width="252.5" height="200" as="geometry" />
        </mxCell>
        <mxCell id="V94yT28tCt5CNNnFMt7O-6" value="条件式ベースコンポーネント取得" style="text;html=1;align=center;verticalAlign=middle;resizable=0;points=[];autosize=1;strokeColor=none;fillColor=none;fontSize=16;" parent="V94yT28tCt5CNNnFMt7O-5" vertex="1">
          <mxGeometry x="-4.5" y="49" width="257" height="31" as="geometry" />
        </mxCell>
        <mxCell id="0eMQlolWz2z9fM6txT98-3" value="Drag" style="swimlane;whiteSpace=wrap;html=1;fontSize=16;" parent="ESlLFewBLlkk10iAwdE4-19" vertex="1">
          <mxGeometry x="65" y="60" width="250" height="450" as="geometry">
            <mxRectangle x="51" y="72" width="71" height="31" as="alternateBounds" />
          </mxGeometry>
        </mxCell>
        <mxCell id="0eMQlolWz2z9fM6txT98-4" value="Type type = 条件式" style="text;html=1;align=center;verticalAlign=middle;resizable=0;points=[];autosize=1;strokeColor=none;fillColor=none;fontSize=16;" parent="0eMQlolWz2z9fM6txT98-3" vertex="1">
          <mxGeometry x="29.5" y="30" width="154" height="31" as="geometry" />
        </mxCell>
        <mxCell id="0eMQlolWz2z9fM6txT98-29" value="BeginDrag" style="swimlane;whiteSpace=wrap;html=1;fontSize=16;" parent="0eMQlolWz2z9fM6txT98-3" vertex="1">
          <mxGeometry x="18" y="108" width="200" height="116" as="geometry" />
        </mxCell>
        <mxCell id="0eMQlolWz2z9fM6txT98-31" value="呼び出し" style="text;html=1;align=center;verticalAlign=middle;resizable=0;points=[];autosize=1;strokeColor=none;fillColor=none;fontSize=16;" parent="0eMQlolWz2z9fM6txT98-29" vertex="1">
          <mxGeometry x="59" y="50" width="82" height="31" as="geometry" />
        </mxCell>
        <mxCell id="0eMQlolWz2z9fM6txT98-30" value="EndDrag" style="swimlane;whiteSpace=wrap;html=1;fontSize=16;" parent="0eMQlolWz2z9fM6txT98-3" vertex="1">
          <mxGeometry x="18" y="286" width="200" height="113" as="geometry" />
        </mxCell>
        <mxCell id="0eMQlolWz2z9fM6txT98-32" value="呼び出し" style="text;html=1;align=center;verticalAlign=middle;resizable=0;points=[];autosize=1;strokeColor=none;fillColor=none;fontSize=16;" parent="0eMQlolWz2z9fM6txT98-30" vertex="1">
          <mxGeometry x="56" y="62" width="82" height="31" as="geometry" />
        </mxCell>
        <mxCell id="ESlLFewBLlkk10iAwdE4-25" value="条件式ベースコンポーネント" style="swimlane;whiteSpace=wrap;html=1;fontSize=16;" parent="ESlLFewBLlkk10iAwdE4-19" vertex="1">
          <mxGeometry x="384" y="675" width="481" height="369" as="geometry" />
        </mxCell>
        <mxCell id="OX70NU7VaJtVl9tTdNUW-18" value="条件式メソッド" style="swimlane;whiteSpace=wrap;html=1;fontSize=16;" parent="ESlLFewBLlkk10iAwdE4-25" vertex="1">
          <mxGeometry x="134" y="169" width="163" height="161" as="geometry" />
        </mxCell>
        <mxCell id="ESlLFewBLlkk10iAwdE4-27" style="edgeStyle=none;curved=1;rounded=0;orthogonalLoop=1;jettySize=auto;html=1;entryX=0.5;entryY=0;entryDx=0;entryDy=0;fontSize=12;startSize=8;endSize=8;exitX=0.5;exitY=1;exitDx=0;exitDy=0;" parent="ESlLFewBLlkk10iAwdE4-19" source="V94yT28tCt5CNNnFMt7O-5" target="OX70NU7VaJtVl9tTdNUW-18" edge="1">
          <mxGeometry relative="1" as="geometry" />
        </mxCell>
        <mxCell id="ESlLFewBLlkk10iAwdE4-28" value="スクリプトで設定" style="edgeLabel;html=1;align=center;verticalAlign=middle;resizable=0;points=[];fontSize=16;" parent="ESlLFewBLlkk10iAwdE4-27" vertex="1" connectable="0">
          <mxGeometry x="0.4323" y="1" relative="1" as="geometry">
            <mxPoint as="offset" />
          </mxGeometry>
        </mxCell>
        <mxCell id="0eMQlolWz2z9fM6txT98-6" value="If文" style="swimlane;whiteSpace=wrap;html=1;fontSize=16;" parent="1" vertex="1">
          <mxGeometry x="-913" y="-231" width="1248" height="1480" as="geometry" />
        </mxCell>
        <mxCell id="ESlLFewBLlkk10iAwdE4-2" value="条件式ドロップエリア" style="swimlane;whiteSpace=wrap;html=1;fontSize=16;" parent="0eMQlolWz2z9fM6txT98-6" vertex="1">
          <mxGeometry x="619" y="74" width="563" height="483" as="geometry" />
        </mxCell>
        <mxCell id="0eMQlolWz2z9fM6txT98-7" value="Drop" style="swimlane;whiteSpace=wrap;html=1;fontSize=16;" parent="ESlLFewBLlkk10iAwdE4-2" vertex="1">
          <mxGeometry x="131" y="97" width="403" height="353" as="geometry" />
        </mxCell>
        <mxCell id="0eMQlolWz2z9fM6txT98-9" value="Type type = 条件式" style="text;html=1;align=center;verticalAlign=middle;resizable=0;points=[];autosize=1;strokeColor=none;fillColor=none;fontSize=16;" parent="0eMQlolWz2z9fM6txT98-7" vertex="1">
          <mxGeometry x="21" y="52" width="154" height="31" as="geometry" />
        </mxCell>
        <mxCell id="OX70NU7VaJtVl9tTdNUW-33" value="BeginDrop" style="swimlane;whiteSpace=wrap;html=1;fontSize=16;startSize=30;" parent="0eMQlolWz2z9fM6txT98-7" vertex="1">
          <mxGeometry x="233" y="97" width="125" height="142" as="geometry" />
        </mxCell>
        <mxCell id="OX70NU7VaJtVl9tTdNUW-38" value="EndDrop" style="swimlane;whiteSpace=wrap;html=1;fontSize=16;" parent="0eMQlolWz2z9fM6txT98-7" vertex="1">
          <mxGeometry x="28" y="167" width="141" height="137" as="geometry" />
        </mxCell>
        <mxCell id="ESlLFewBLlkk10iAwdE4-4" style="edgeStyle=none;curved=1;rounded=0;orthogonalLoop=1;jettySize=auto;html=1;entryX=0.25;entryY=1;entryDx=0;entryDy=0;fontSize=12;startSize=8;endSize=8;" parent="0eMQlolWz2z9fM6txT98-6" source="ESlLFewBLlkk10iAwdE4-3" target="ESlLFewBLlkk10iAwdE4-2" edge="1">
          <mxGeometry relative="1" as="geometry" />
        </mxCell>
        <mxCell id="ESlLFewBLlkk10iAwdE4-6" value="親子" style="edgeLabel;html=1;align=center;verticalAlign=middle;resizable=0;points=[];fontSize=16;" parent="ESlLFewBLlkk10iAwdE4-4" vertex="1" connectable="0">
          <mxGeometry x="-0.0073" y="-5" relative="1" as="geometry">
            <mxPoint as="offset" />
          </mxGeometry>
        </mxCell>
        <mxCell id="ESlLFewBLlkk10iAwdE4-3" value="if文" style="swimlane;whiteSpace=wrap;html=1;fontSize=16;" parent="0eMQlolWz2z9fM6txT98-6" vertex="1">
          <mxGeometry x="71" y="736" width="1083" height="633" as="geometry" />
        </mxCell>
        <mxCell id="0eMQlolWz2z9fM6txT98-14" value="Ifコンポーネント" style="swimlane;whiteSpace=wrap;html=1;fontSize=16;" parent="ESlLFewBLlkk10iAwdE4-3" vertex="1">
          <mxGeometry x="67.5" y="75" width="971" height="519" as="geometry" />
        </mxCell>
        <mxCell id="0eMQlolWz2z9fM6txT98-15" value="条件式設定メソッド" style="swimlane;whiteSpace=wrap;html=1;fontSize=16;" parent="0eMQlolWz2z9fM6txT98-14" vertex="1">
          <mxGeometry x="765" y="123" width="173" height="134" as="geometry" />
        </mxCell>
        <mxCell id="0eMQlolWz2z9fM6txT98-16" value="Funcに代入" style="text;html=1;align=center;verticalAlign=middle;resizable=0;points=[];autosize=1;strokeColor=none;fillColor=none;fontSize=16;" parent="0eMQlolWz2z9fM6txT98-15" vertex="1">
          <mxGeometry x="17" y="89" width="102" height="31" as="geometry" />
        </mxCell>
        <mxCell id="0eMQlolWz2z9fM6txT98-17" value="孫要素の関数取得" style="text;html=1;align=center;verticalAlign=middle;resizable=0;points=[];autosize=1;strokeColor=none;fillColor=none;fontSize=16;" parent="0eMQlolWz2z9fM6txT98-15" vertex="1">
          <mxGeometry x="1" y="39" width="146" height="31" as="geometry" />
        </mxCell>
        <mxCell id="0eMQlolWz2z9fM6txT98-18" value="実行メソッド" style="swimlane;whiteSpace=wrap;html=1;fontSize=16;" parent="0eMQlolWz2z9fM6txT98-14" vertex="1">
          <mxGeometry x="25" y="49" width="157" height="140" as="geometry" />
        </mxCell>
        <mxCell id="0eMQlolWz2z9fM6txT98-20" value="孫要素の関数取得" style="text;html=1;align=center;verticalAlign=middle;resizable=0;points=[];autosize=1;strokeColor=none;fillColor=none;fontSize=16;" parent="0eMQlolWz2z9fM6txT98-18" vertex="1">
          <mxGeometry x="-0.5" y="39" width="146" height="31" as="geometry" />
        </mxCell>
        <mxCell id="0eMQlolWz2z9fM6txT98-21" value="Actionに代入" style="text;html=1;align=center;verticalAlign=middle;resizable=0;points=[];autosize=1;strokeColor=none;fillColor=none;fontSize=16;" parent="0eMQlolWz2z9fM6txT98-18" vertex="1">
          <mxGeometry x="13.5" y="87" width="110" height="31" as="geometry" />
        </mxCell>
        <mxCell id="0eMQlolWz2z9fM6txT98-27" value="Update" style="swimlane;whiteSpace=wrap;html=1;fontSize=16;" parent="0eMQlolWz2z9fM6txT98-14" vertex="1">
          <mxGeometry x="56" y="259" width="200" height="200" as="geometry" />
        </mxCell>
        <mxCell id="0eMQlolWz2z9fM6txT98-28" value="if(Func){Action}" style="text;html=1;align=center;verticalAlign=middle;resizable=0;points=[];autosize=1;strokeColor=none;fillColor=none;fontSize=16;rotation=0;" parent="0eMQlolWz2z9fM6txT98-27" vertex="1">
          <mxGeometry x="41" y="71" width="127" height="31" as="geometry" />
        </mxCell>
        <mxCell id="OX70NU7VaJtVl9tTdNUW-31" value="条件式削除メソッド" style="swimlane;whiteSpace=wrap;html=1;fontSize=16;" parent="0eMQlolWz2z9fM6txT98-14" vertex="1">
          <mxGeometry x="520" y="98" width="163" height="143" as="geometry" />
        </mxCell>
        <mxCell id="OX70NU7VaJtVl9tTdNUW-32" value="Func=null" style="text;html=1;align=center;verticalAlign=middle;resizable=0;points=[];autosize=1;strokeColor=none;fillColor=none;fontSize=16;" parent="OX70NU7VaJtVl9tTdNUW-31" vertex="1">
          <mxGeometry x="30" y="56" width="88" height="31" as="geometry" />
        </mxCell>
        <mxCell id="0eMQlolWz2z9fM6txT98-22" style="edgeStyle=none;curved=1;rounded=0;orthogonalLoop=1;jettySize=auto;html=1;fontSize=12;startSize=8;endSize=8;entryX=0.5;entryY=1;entryDx=0;entryDy=0;" parent="0eMQlolWz2z9fM6txT98-6" source="0eMQlolWz2z9fM6txT98-15" target="OX70NU7VaJtVl9tTdNUW-33" edge="1">
          <mxGeometry relative="1" as="geometry">
            <mxPoint x="350.074074074074" y="456.6666666666665" as="targetPoint" />
          </mxGeometry>
        </mxCell>
        <mxCell id="0eMQlolWz2z9fM6txT98-25" value="インスペクターで設定" style="edgeLabel;html=1;align=center;verticalAlign=middle;resizable=0;points=[];fontSize=16;" parent="0eMQlolWz2z9fM6txT98-22" vertex="1" connectable="0">
          <mxGeometry x="0.3534" y="-4" relative="1" as="geometry">
            <mxPoint as="offset" />
          </mxGeometry>
        </mxCell>
        <mxCell id="OX70NU7VaJtVl9tTdNUW-39" value="インスペクターで設定" style="edgeStyle=none;curved=1;rounded=0;orthogonalLoop=1;jettySize=auto;html=1;fontSize=12;startSize=8;endSize=8;entryX=0.5;entryY=1;entryDx=0;entryDy=0;" parent="0eMQlolWz2z9fM6txT98-6" source="OX70NU7VaJtVl9tTdNUW-31" target="OX70NU7VaJtVl9tTdNUW-38" edge="1">
          <mxGeometry relative="1" as="geometry">
            <mxPoint x="742.4999999999998" y="451.5652173913045" as="targetPoint" />
          </mxGeometry>
        </mxCell>
        <mxCell id="ESlLFewBLlkk10iAwdE4-1" value="実行文ドロップエリア" style="swimlane;whiteSpace=wrap;html=1;fontSize=16;" parent="0eMQlolWz2z9fM6txT98-6" vertex="1">
          <mxGeometry x="69" y="109" width="485" height="343" as="geometry" />
        </mxCell>
        <mxCell id="0eMQlolWz2z9fM6txT98-8" value="Drop" style="swimlane;whiteSpace=wrap;html=1;fontSize=16;" parent="ESlLFewBLlkk10iAwdE4-1" vertex="1">
          <mxGeometry x="79" y="89" width="276" height="197.5" as="geometry" />
        </mxCell>
        <mxCell id="0eMQlolWz2z9fM6txT98-10" value="Type type = 実行" style="text;html=1;align=center;verticalAlign=middle;resizable=0;points=[];autosize=1;strokeColor=none;fillColor=none;fontSize=16;" parent="0eMQlolWz2z9fM6txT98-8" vertex="1">
          <mxGeometry x="27" y="47" width="138" height="31" as="geometry" />
        </mxCell>
        <mxCell id="0eMQlolWz2z9fM6txT98-23" style="edgeStyle=none;curved=1;rounded=0;orthogonalLoop=1;jettySize=auto;html=1;fontSize=12;startSize=8;endSize=8;entryX=0.75;entryY=1;entryDx=0;entryDy=0;exitX=0.5;exitY=0;exitDx=0;exitDy=0;" parent="0eMQlolWz2z9fM6txT98-6" source="0eMQlolWz2z9fM6txT98-18" target="0eMQlolWz2z9fM6txT98-8" edge="1">
          <mxGeometry relative="1" as="geometry">
            <mxPoint x="118" y="487.5" as="targetPoint" />
            <mxPoint x="130.61489361702127" y="757" as="sourcePoint" />
          </mxGeometry>
        </mxCell>
        <mxCell id="0eMQlolWz2z9fM6txT98-24" value="インスペクターで設定" style="edgeLabel;html=1;align=center;verticalAlign=middle;resizable=0;points=[];fontSize=16;" parent="0eMQlolWz2z9fM6txT98-23" vertex="1" connectable="0">
          <mxGeometry x="0.3407" y="-2" relative="1" as="geometry">
            <mxPoint as="offset" />
          </mxGeometry>
        </mxCell>
        <mxCell id="ESlLFewBLlkk10iAwdE4-5" style="edgeStyle=none;curved=1;rounded=0;orthogonalLoop=1;jettySize=auto;html=1;fontSize=12;startSize=8;endSize=8;entryX=0.75;entryY=1;entryDx=0;entryDy=0;" parent="0eMQlolWz2z9fM6txT98-6" source="ESlLFewBLlkk10iAwdE4-3" target="ESlLFewBLlkk10iAwdE4-1" edge="1">
          <mxGeometry relative="1" as="geometry">
            <mxPoint x="461.04347826086973" y="709.8260869565217" as="targetPoint" />
          </mxGeometry>
        </mxCell>
        <mxCell id="ESlLFewBLlkk10iAwdE4-7" value="親子" style="edgeLabel;html=1;align=center;verticalAlign=middle;resizable=0;points=[];fontSize=16;" parent="ESlLFewBLlkk10iAwdE4-5" vertex="1" connectable="0">
          <mxGeometry x="-0.1271" y="-2" relative="1" as="geometry">
            <mxPoint as="offset" />
          </mxGeometry>
        </mxCell>
        <mxCell id="0eMQlolWz2z9fM6txT98-12" value="" style="endArrow=classic;html=1;rounded=0;fontSize=12;startSize=8;endSize=8;curved=1;entryX=1;entryY=0.25;entryDx=0;entryDy=0;exitX=0;exitY=0.25;exitDx=0;exitDy=0;" parent="1" source="0eMQlolWz2z9fM6txT98-29" target="OX70NU7VaJtVl9tTdNUW-33" edge="1">
          <mxGeometry width="50" height="50" relative="1" as="geometry">
            <mxPoint x="480" y="167" as="sourcePoint" />
            <mxPoint x="430" y="68" as="targetPoint" />
          </mxGeometry>
        </mxCell>
        <mxCell id="0eMQlolWz2z9fM6txT98-26" value="Dropを呼ぶ" style="edgeLabel;html=1;align=center;verticalAlign=middle;resizable=0;points=[];fontSize=16;" parent="0eMQlolWz2z9fM6txT98-12" vertex="1" connectable="0">
          <mxGeometry x="-0.0652" y="2" relative="1" as="geometry">
            <mxPoint as="offset" />
          </mxGeometry>
        </mxCell>
        <mxCell id="0eMQlolWz2z9fM6txT98-33" value="" style="endArrow=classic;html=1;rounded=0;fontSize=12;startSize=8;endSize=8;curved=1;entryX=1;entryY=0.75;entryDx=0;entryDy=0;exitX=0;exitY=0.25;exitDx=0;exitDy=0;" parent="1" source="0eMQlolWz2z9fM6txT98-30" target="OX70NU7VaJtVl9tTdNUW-38" edge="1">
          <mxGeometry width="50" height="50" relative="1" as="geometry">
            <mxPoint x="478" y="420" as="sourcePoint" />
            <mxPoint x="212" y="342" as="targetPoint" />
          </mxGeometry>
        </mxCell>
        <mxCell id="0eMQlolWz2z9fM6txT98-34" value="Dropを呼ぶ" style="edgeLabel;html=1;align=center;verticalAlign=middle;resizable=0;points=[];fontSize=16;" parent="0eMQlolWz2z9fM6txT98-33" vertex="1" connectable="0">
          <mxGeometry x="-0.0652" y="2" relative="1" as="geometry">
            <mxPoint as="offset" />
          </mxGeometry>
        </mxCell>
        <mxCell id="OX70NU7VaJtVl9tTdNUW-9" value="Dropを呼ぶ" style="edgeStyle=none;curved=1;rounded=0;orthogonalLoop=1;jettySize=auto;html=1;entryX=1;entryY=0.25;entryDx=0;entryDy=0;fontSize=12;startSize=8;endSize=8;" parent="1" source="OX70NU7VaJtVl9tTdNUW-5" target="ESlLFewBLlkk10iAwdE4-16" edge="1">
          <mxGeometry relative="1" as="geometry">
            <mxPoint x="1493" y="154.74999999999955" as="targetPoint" />
          </mxGeometry>
        </mxCell>
        <mxCell id="OX70NU7VaJtVl9tTdNUW-10" style="edgeStyle=none;curved=1;rounded=0;orthogonalLoop=1;jettySize=auto;html=1;fontSize=12;startSize=8;endSize=8;entryX=1;entryY=0.25;entryDx=0;entryDy=0;" parent="1" source="OX70NU7VaJtVl9tTdNUW-7" target="ESlLFewBLlkk10iAwdE4-17" edge="1">
          <mxGeometry relative="1" as="geometry">
            <mxPoint x="1493" y="260.24999999999955" as="targetPoint" />
          </mxGeometry>
        </mxCell>
        <mxCell id="OX70NU7VaJtVl9tTdNUW-11" value="Dropを呼ぶ" style="edgeLabel;html=1;align=center;verticalAlign=middle;resizable=0;points=[];fontSize=16;" parent="OX70NU7VaJtVl9tTdNUW-10" vertex="1" connectable="0">
          <mxGeometry x="-0.1508" y="5" relative="1" as="geometry">
            <mxPoint as="offset" />
          </mxGeometry>
        </mxCell>
        <mxCell id="OX70NU7VaJtVl9tTdNUW-22" style="edgeStyle=none;curved=1;rounded=0;orthogonalLoop=1;jettySize=auto;html=1;fontSize=12;startSize=8;endSize=8;entryX=1;entryY=0.75;entryDx=0;entryDy=0;" parent="1" source="OX70NU7VaJtVl9tTdNUW-18" target="0eMQlolWz2z9fM6txT98-15" edge="1">
          <mxGeometry relative="1" as="geometry">
            <mxPoint x="540.0952380952381" y="927.5238095238094" as="targetPoint" />
          </mxGeometry>
        </mxCell>
        <mxCell id="OX70NU7VaJtVl9tTdNUW-23" value="子要素から探して取得" style="edgeLabel;html=1;align=center;verticalAlign=middle;resizable=0;points=[];fontSize=16;" parent="OX70NU7VaJtVl9tTdNUW-22" vertex="1" connectable="0">
          <mxGeometry x="-0.163" relative="1" as="geometry">
            <mxPoint as="offset" />
          </mxGeometry>
        </mxCell>
        <mxCell id="OX70NU7VaJtVl9tTdNUW-27" value="子要素から探して取得" style="edgeStyle=none;curved=1;rounded=0;orthogonalLoop=1;jettySize=auto;html=1;entryX=1;entryY=0.5;entryDx=0;entryDy=0;fontSize=12;startSize=8;endSize=8;" parent="1" source="OX70NU7VaJtVl9tTdNUW-25" target="OX70NU7VaJtVl9tTdNUW-15" edge="1">
          <mxGeometry relative="1" as="geometry" />
        </mxCell>
        <mxCell id="OX70NU7VaJtVl9tTdNUW-1" value="変数" style="swimlane;whiteSpace=wrap;html=1;fontSize=16;" parent="1" vertex="1">
          <mxGeometry x="1934" y="-748" width="741" height="1278" as="geometry" />
        </mxCell>
        <mxCell id="OX70NU7VaJtVl9tTdNUW-3" value="Drag" style="swimlane;whiteSpace=wrap;html=1;fontSize=16;" parent="OX70NU7VaJtVl9tTdNUW-1" vertex="1">
          <mxGeometry x="64" y="78" width="250" height="463" as="geometry">
            <mxRectangle x="51" y="72" width="71" height="31" as="alternateBounds" />
          </mxGeometry>
        </mxCell>
        <mxCell id="OX70NU7VaJtVl9tTdNUW-4" value="Type type = 変数" style="text;html=1;align=center;verticalAlign=middle;resizable=0;points=[];autosize=1;strokeColor=none;fillColor=none;fontSize=16;" parent="OX70NU7VaJtVl9tTdNUW-3" vertex="1">
          <mxGeometry x="37.5" y="30" width="138" height="31" as="geometry" />
        </mxCell>
        <mxCell id="OX70NU7VaJtVl9tTdNUW-5" value="BeginDrag" style="swimlane;whiteSpace=wrap;html=1;fontSize=16;" parent="OX70NU7VaJtVl9tTdNUW-3" vertex="1">
          <mxGeometry x="18" y="108" width="200" height="116" as="geometry" />
        </mxCell>
        <mxCell id="OX70NU7VaJtVl9tTdNUW-6" value="呼び出し" style="text;html=1;align=center;verticalAlign=middle;resizable=0;points=[];autosize=1;strokeColor=none;fillColor=none;fontSize=16;" parent="OX70NU7VaJtVl9tTdNUW-5" vertex="1">
          <mxGeometry x="59" y="50" width="82" height="31" as="geometry" />
        </mxCell>
        <mxCell id="OX70NU7VaJtVl9tTdNUW-7" value="EndDrag" style="swimlane;whiteSpace=wrap;html=1;fontSize=16;" parent="OX70NU7VaJtVl9tTdNUW-3" vertex="1">
          <mxGeometry x="18" y="286" width="200" height="113" as="geometry" />
        </mxCell>
        <mxCell id="OX70NU7VaJtVl9tTdNUW-8" value="呼び出し" style="text;html=1;align=center;verticalAlign=middle;resizable=0;points=[];autosize=1;strokeColor=none;fillColor=none;fontSize=16;" parent="OX70NU7VaJtVl9tTdNUW-7" vertex="1">
          <mxGeometry x="56" y="62" width="82" height="31" as="geometry" />
        </mxCell>
        <mxCell id="OX70NU7VaJtVl9tTdNUW-40" value="変数コンポーネント" style="swimlane;whiteSpace=wrap;html=1;fontSize=16;startSize=23;" parent="OX70NU7VaJtVl9tTdNUW-1" vertex="1">
          <mxGeometry x="344" y="466" width="339" height="305" as="geometry" />
        </mxCell>
        <mxCell id="OX70NU7VaJtVl9tTdNUW-41" value="Start" style="swimlane;whiteSpace=wrap;html=1;fontSize=16;" parent="OX70NU7VaJtVl9tTdNUW-40" vertex="1">
          <mxGeometry x="36" y="36" width="161" height="103" as="geometry" />
        </mxCell>
        <mxCell id="OX70NU7VaJtVl9tTdNUW-43" value="GetComponent" style="text;html=1;align=center;verticalAlign=middle;resizable=0;points=[];autosize=1;strokeColor=none;fillColor=none;fontSize=16;" parent="OX70NU7VaJtVl9tTdNUW-41" vertex="1">
          <mxGeometry x="17" y="27" width="127" height="31" as="geometry" />
        </mxCell>
        <mxCell id="ESlLFewBLlkk10iAwdE4-31" value="変数ベースコンポーネント" style="swimlane;whiteSpace=wrap;html=1;fontSize=16;" parent="OX70NU7VaJtVl9tTdNUW-1" vertex="1">
          <mxGeometry x="128" y="916" width="391" height="200" as="geometry" />
        </mxCell>
        <mxCell id="OX70NU7VaJtVl9tTdNUW-25" value="変数メソッド(Updateで呼ばれる)" style="swimlane;whiteSpace=wrap;html=1;fontSize=16;" parent="ESlLFewBLlkk10iAwdE4-31" vertex="1">
          <mxGeometry x="51.5" y="76" width="281.5" height="101" as="geometry" />
        </mxCell>
        <mxCell id="ESlLFewBLlkk10iAwdE4-34" value="インスペクターで設定" style="edgeStyle=none;curved=1;rounded=0;orthogonalLoop=1;jettySize=auto;html=1;entryX=0.75;entryY=0;entryDx=0;entryDy=0;fontSize=12;startSize=8;endSize=8;" parent="OX70NU7VaJtVl9tTdNUW-1" source="ESlLFewBLlkk10iAwdE4-32" target="OX70NU7VaJtVl9tTdNUW-25" edge="1">
          <mxGeometry relative="1" as="geometry" />
        </mxCell>
        <mxCell id="ESlLFewBLlkk10iAwdE4-32" value="変数メソッド" style="swimlane;whiteSpace=wrap;html=1;fontSize=16;startSize=23;" parent="OX70NU7VaJtVl9tTdNUW-1" vertex="1">
          <mxGeometry x="455" y="640" width="200" height="98.5" as="geometry" />
        </mxCell>
        <mxCell id="ESlLFewBLlkk10iAwdE4-33" value="変数取得" style="text;html=1;align=center;verticalAlign=middle;resizable=0;points=[];autosize=1;strokeColor=none;fillColor=none;fontSize=16;" parent="ESlLFewBLlkk10iAwdE4-32" vertex="1">
          <mxGeometry x="47" y="39" width="82" height="31" as="geometry" />
        </mxCell>
        <mxCell id="V94yT28tCt5CNNnFMt7O-7" value="条件式をセット" style="text;html=1;align=center;verticalAlign=middle;resizable=0;points=[];autosize=1;strokeColor=none;fillColor=none;fontSize=16;" parent="1" vertex="1">
          <mxGeometry x="1028" y="419" width="130" height="31" as="geometry" />
        </mxCell>
        <mxCell id="ESlLFewBLlkk10iAwdE4-26" value="条件式メソッド" style="swimlane;whiteSpace=wrap;html=1;fontSize=16;" parent="1" vertex="1">
          <mxGeometry x="1273" y="417" width="285" height="240" as="geometry" />
        </mxCell>
        <mxCell id="ESlLFewBLlkk10iAwdE4-29" value="変数=Func" style="text;html=1;align=center;verticalAlign=middle;resizable=0;points=[];autosize=1;strokeColor=none;fillColor=none;fontSize=16;" parent="ESlLFewBLlkk10iAwdE4-26" vertex="1">
          <mxGeometry x="51" y="57" width="95" height="31" as="geometry" />
        </mxCell>
        <mxCell id="ESlLFewBLlkk10iAwdE4-30" value="条件式" style="text;html=1;align=center;verticalAlign=middle;resizable=0;points=[];autosize=1;strokeColor=none;fillColor=none;fontSize=16;" parent="ESlLFewBLlkk10iAwdE4-26" vertex="1">
          <mxGeometry x="65.5" y="118" width="66" height="31" as="geometry" />
        </mxCell>
      </root>
    </mxGraphModel>
  </diagram>
</mxfile>
